<svg width="1165" height="1088" viewBox="0 0 1165 1088" fill="none" xmlns="http://www.w3.org/2000/svg">
<path d="M836.419 596C835.153 600.477 833.631 605.893 831.919 612.061C826.817 630.438 820.01 655.501 813.2 682.217C806.395 708.914 799.562 737.357 794.423 762.467C789.347 787.269 785.719 809.765 785.719 824.096C785.719 838.822 789.491 855.712 794.711 872.239C799.978 888.913 806.951 905.924 813.844 921.105C820.748 936.311 827.641 949.832 832.806 959.547C833.522 960.894 834.206 962.169 834.853 963.366C830.235 964.788 824.454 966.536 817.67 968.516C798.812 974.017 772.238 981.318 741.412 988.501C679.563 1002.91 601.374 1016.67 534.166 1014.84C466.558 1013 386.879 999.157 323.76 985.655C292.274 978.92 265.051 972.301 245.707 967.366C239.279 965.727 233.724 964.271 229.174 963.062C229.613 962.325 230.067 961.561 230.532 960.77C236.023 951.421 243.236 938.314 250.098 923.304C256.945 908.326 263.546 891.231 267.693 873.935C271.817 856.736 273.687 838.64 270.408 821.973C264.691 792.908 252.784 733.118 242.31 680.61C237.072 654.353 232.191 629.911 228.62 612.034C227.381 605.834 226.3 600.423 225.416 596H836.419Z" fill="black" stroke="#8FE508" stroke-width="22"/>
<path d="M539.031 360.223L1055.93 544.763L539.037 757.547L31.5553 544.762L539.031 360.223Z" fill="black" stroke="#8FE508" stroke-width="23"/>
<path d="M521 525C521 525 994.698 554.531 1090.45 594.573C1186.19 634.615 1068.5 997.5 1068.5 997.5" stroke="#8FE508" stroke-width="20"/>
<path d="M544 491.5C567.581 491.5 586.5 506.819 586.5 525.5C586.5 544.181 567.581 559.5 544 559.5C520.419 559.5 501.5 544.181 501.5 525.5C501.5 506.819 520.419 491.5 544 491.5Z" fill="#8FE508" stroke="#8FE508"/>
<path d="M1124.5 717.5C1136.12 717.5 1145.5 726.476 1145.5 737.5C1145.5 748.524 1136.12 757.5 1124.5 757.5C1112.88 757.5 1103.5 748.524 1103.5 737.5C1103.5 726.476 1112.88 717.5 1124.5 717.5Z" fill="#8FE508" stroke="#8FE508"/>
<path d="M1122 745.673C1122 745.673 1129 864.925 1133 900.925C1137 936.925 1155 990.925 1155 990.925" stroke="#8FE508" stroke-width="20"/>
<path d="M445.391 908H392.655V895.84C392.655 889.696 393.466 884.576 395.087 880.48C396.708 876.299 398.884 872.885 401.615 870.24C404.346 867.509 407.332 865.333 410.575 863.712L419.279 859.36C422.607 857.653 425.295 855.861 427.343 853.984C429.476 852.021 430.543 849.504 430.543 846.432V844.128C430.543 840.971 429.434 838.496 427.215 836.704C425.082 834.827 421.626 833.888 416.847 833.888C413.946 833.888 411.002 834.315 408.015 835.168C405.114 836.021 401.572 837.216 397.391 838.752L392.655 825.568C397.434 823.435 401.786 821.941 405.711 821.088C409.722 820.149 413.604 819.68 417.359 819.68C424.271 819.68 429.775 820.789 433.871 823.008C438.052 825.227 441.039 828.213 442.831 831.968C444.708 835.637 445.647 839.691 445.647 844.128V846.432C445.647 851.04 444.708 854.965 442.831 858.208C441.039 861.451 438.65 864.181 435.663 866.4C432.676 868.619 429.434 870.581 425.935 872.288L417.231 876.64C414.074 878.176 411.727 880.309 410.191 883.04C408.74 885.771 407.93 889.269 407.759 893.536H445.391V908ZM524.48 855.264V873.568C524.48 884.661 521.877 893.408 516.672 899.808C511.467 906.123 503.829 909.28 493.76 909.28C483.691 909.28 476.053 906.123 470.848 899.808C465.643 893.408 463.04 884.661 463.04 873.568V855.264C463.04 844.171 465.643 835.467 470.848 829.152C476.053 822.837 483.691 819.68 493.76 819.68C503.829 819.68 511.467 822.837 516.672 829.152C521.877 835.467 524.48 844.171 524.48 855.264ZM508.992 855.264C508.992 841.013 503.915 833.888 493.76 833.888C488.555 833.888 484.715 835.68 482.24 839.264C479.765 842.848 478.528 848.181 478.528 855.264V873.568C478.528 880.651 479.765 886.027 482.24 889.696C484.715 893.28 488.555 895.072 493.76 895.072C503.915 895.072 508.992 887.904 508.992 873.568V855.264ZM593.261 908H540.525V895.84C540.525 889.696 541.336 884.576 542.957 880.48C544.578 876.299 546.754 872.885 549.485 870.24C552.216 867.509 555.202 865.333 558.445 863.712L567.149 859.36C570.477 857.653 573.165 855.861 575.213 853.984C577.346 852.021 578.413 849.504 578.413 846.432V844.128C578.413 840.971 577.304 838.496 575.085 836.704C572.952 834.827 569.496 833.888 564.717 833.888C561.816 833.888 558.872 834.315 555.885 835.168C552.984 836.021 549.442 837.216 545.261 838.752L540.525 825.568C545.304 823.435 549.656 821.941 553.581 821.088C557.592 820.149 561.474 819.68 565.229 819.68C572.141 819.68 577.645 820.789 581.741 823.008C585.922 825.227 588.909 828.213 590.701 831.968C592.578 835.637 593.517 839.691 593.517 844.128V846.432C593.517 851.04 592.578 854.965 590.701 858.208C588.909 861.451 586.52 864.181 583.533 866.4C580.546 868.619 577.304 870.581 573.805 872.288L565.101 876.64C561.944 878.176 559.597 880.309 558.061 883.04C556.61 885.771 555.8 889.269 555.629 893.536H593.261V908ZM669.534 881.888C669.534 887.093 668.382 891.787 666.078 895.968C663.774 900.064 660.489 903.307 656.222 905.696C652.041 908.085 646.963 909.28 640.99 909.28C631.518 909.28 624.137 906.08 618.846 899.68C613.555 893.28 610.91 884.491 610.91 873.312V855.264C610.91 843.317 613.726 834.4 619.358 828.512C624.99 822.624 632.926 819.68 643.166 819.68C646.75 819.68 650.462 820.107 654.302 820.96C658.227 821.813 662.537 823.349 667.23 825.568L661.726 838.752C657.886 836.96 654.515 835.723 651.614 835.04C648.713 834.272 646.025 833.888 643.55 833.888C638.174 833.888 633.822 835.509 630.494 838.752C627.251 841.909 625.63 847.413 625.63 855.264V859.872C628.617 857.227 631.689 855.264 634.846 853.984C638.089 852.704 641.289 852.064 644.446 852.064C649.566 852.064 654.003 853.216 657.758 855.52C661.513 857.824 664.414 861.024 666.462 865.12C668.51 869.216 669.534 873.952 669.534 879.328V881.888ZM625.63 873.312C625.63 880.651 626.995 886.112 629.726 889.696C632.457 893.28 636.297 895.072 641.246 895.072C645.513 895.072 648.798 893.877 651.102 891.488C653.406 889.013 654.558 885.813 654.558 881.888V879.328C654.558 875.317 653.491 872.075 651.358 869.6C649.225 867.125 646.153 865.888 642.142 865.888C636.083 865.888 630.579 868.192 625.63 872.8V873.312Z" fill="#8FE508"/>
<line x1="1118.5" y1="951.991" x2="1120.52" y2="841.991" stroke="white"/>
</svg>
